<?xml version="1.0" standalone="no"?>
<!DOCTYPE svg PUBLIC "-//W3C//DTD SVG 20010904//EN"
 "http://www.w3.org/TR/2001/REC-SVG-20010904/DTD/svg10.dtd">
<svg version="1.0" xmlns="http://www.w3.org/2000/svg"
 width="1000.000000pt" height="1000.000000pt" viewBox="0 0 1000.000000 1000.000000"
 preserveAspectRatio="xMidYMid meet">
<metadata>
Created by potrace 1.14, written by Peter Selinger 2001-2017
</metadata>
<g transform="translate(0.000000,1000.000000) scale(0.100000,-0.100000)"
fill="#000000" stroke="none">
<path d="M4825 9130 c-3 -5 -3 -14 0 -20 3 -5 -1 -10 -9 -10 -8 0 -13 -6 -11
-12 3 -7 -5 -24 -18 -38 -25 -27 -44 -65 -27 -55 20 12 9 -4 -30 -46 -21 -23
-37 -46 -34 -51 3 -4 -2 -11 -11 -14 -9 -4 -14 -12 -11 -20 3 -7 -2 -18 -10
-24 -8 -7 -14 -20 -14 -30 0 -10 -7 -20 -15 -23 -8 -4 -12 -15 -10 -28 2 -12
2 -19 -1 -16 -12 12 -42 -27 -38 -50 3 -15 -1 -26 -11 -30 -9 -3 -14 -12 -11
-20 3 -7 -1 -16 -9 -19 -8 -4 -13 -10 -10 -14 3 -5 -4 -11 -14 -15 -18 -6 -32
-28 -30 -49 0 -5 -4 -12 -9 -15 -6 -3 -12 -12 -14 -20 -2 -7 -13 -24 -25 -37
-13 -13 -23 -30 -23 -39 0 -8 -4 -15 -10 -15 -5 0 -10 -9 -10 -20 0 -11 -4
-20 -10 -20 -5 0 -10 -17 -10 -37 0 -20 -3 -33 -6 -30 -9 8 -64 -61 -64 -80 0
-8 -4 -11 -10 -8 -6 4 -10 -5 -10 -19 0 -14 -5 -26 -11 -26 -6 0 -9 -9 -6 -20
3 -10 1 -18 -3 -17 -11 3 -51 -44 -45 -54 3 -4 -4 -14 -14 -21 -19 -13 -44
-60 -45 -83 -1 -5 -7 -16 -14 -24 -7 -7 -11 -19 -8 -26 2 -7 -3 -12 -12 -11
-11 1 -16 -7 -17 -24 0 -14 -5 -24 -12 -23 -7 2 -10 -6 -8 -18 3 -13 -3 -23
-19 -30 -18 -8 -23 -18 -21 -40 1 -16 -2 -29 -7 -29 -5 0 -6 -4 -3 -10 3 -5
-1 -10 -10 -10 -9 0 -18 -12 -21 -30 -4 -16 -10 -27 -14 -25 -5 3 -11 -4 -15
-15 -3 -11 -11 -20 -17 -20 -5 0 -8 -6 -5 -14 3 -8 -1 -17 -9 -20 -9 -3 -13
-10 -10 -15 4 -5 -1 -16 -9 -24 -8 -9 -15 -22 -15 -31 0 -8 -10 -22 -22 -30
-14 -10 -21 -25 -20 -46 0 -19 -4 -30 -13 -30 -8 0 -12 -8 -10 -19 2 -13 -5
-26 -21 -36 -14 -9 -22 -20 -19 -26 4 -5 1 -8 -7 -7 -7 2 -13 -4 -13 -12 0
-18 -17 -40 -27 -33 -4 2 -5 -2 -3 -10 3 -7 -5 -26 -19 -42 -14 -16 -23 -32
-20 -37 3 -4 -2 -11 -11 -14 -9 -4 -15 -15 -13 -28 2 -13 -2 -20 -9 -18 -8 1
-13 -8 -13 -23 0 -23 -31 -51 -43 -39 -3 3 -3 -4 0 -16 3 -12 1 -25 -5 -29 -6
-3 -12 -13 -14 -21 -2 -8 -9 -21 -16 -28 -7 -8 -10 -17 -7 -22 3 -4 -2 -11
-11 -14 -9 -3 -14 -12 -11 -20 3 -8 -8 -26 -25 -41 -19 -18 -26 -30 -19 -34 7
-5 1 -21 -20 -49 -17 -23 -27 -42 -23 -42 4 0 -5 -10 -19 -23 -15 -12 -27 -30
-27 -40 0 -9 -4 -17 -10 -17 -5 0 -10 -12 -10 -26 0 -14 -4 -23 -10 -19 -6 4
-10 -5 -10 -19 0 -14 -4 -26 -9 -26 -20 0 -38 -30 -36 -59 1 -17 -3 -29 -9
-28 -6 1 -10 -4 -9 -10 3 -13 -52 -75 -59 -67 -3 2 -5 -3 -6 -11 -1 -8 -3 -22
-4 -30 -1 -8 -5 -12 -10 -9 -4 3 -9 0 -9 -5 -1 -6 -2 -16 -3 -21 0 -6 -7 -15
-15 -19 -7 -5 -10 -14 -7 -20 4 -6 0 -14 -8 -17 -9 -3 -13 -10 -10 -15 3 -5
-2 -9 -12 -9 -12 0 -15 -6 -12 -25 3 -14 -1 -30 -8 -36 -8 -6 -14 -18 -14 -27
0 -9 -16 -30 -35 -48 -20 -18 -35 -36 -34 -41 3 -20 -2 -34 -11 -28 -5 3 -10
-3 -10 -14 0 -12 -5 -21 -11 -21 -6 0 -9 -8 -7 -18 4 -13 -4 -25 -22 -37 -22
-15 -27 -25 -23 -47 2 -15 0 -28 -6 -28 -5 0 -13 -10 -16 -22 -4 -13 -20 -35
-36 -50 -16 -15 -29 -34 -29 -42 0 -9 -4 -16 -10 -16 -5 0 -10 -9 -10 -20 0
-10 -6 -23 -13 -27 -7 -4 -13 -17 -13 -28 0 -11 -5 -19 -12 -18 -7 2 -12 -8
-12 -22 0 -14 -5 -25 -11 -25 -6 0 -9 -6 -6 -12 2 -7 -8 -24 -23 -38 -15 -14
-25 -31 -23 -37 3 -7 0 -13 -6 -13 -6 0 -11 -7 -11 -15 0 -8 -6 -14 -12 -12
-7 1 -13 -5 -13 -14 0 -9 -6 -23 -14 -32 -7 -9 -10 -21 -6 -27 3 -5 2 -10 -4
-10 -6 0 -26 -34 -46 -75 -20 -42 -43 -79 -51 -82 -8 -3 -13 -12 -10 -20 3 -7
-1 -16 -10 -20 -8 -3 -13 -12 -10 -19 3 -8 1 -14 -5 -14 -6 0 -8 -4 -5 -9 3
-5 -1 -12 -10 -15 -8 -3 -13 -10 -10 -15 3 -4 -3 -16 -14 -26 -11 -10 -20 -24
-20 -31 0 -7 -7 -19 -15 -28 -9 -8 -16 -18 -15 -21 1 -20 -1 -26 -8 -21 -4 2
-9 -5 -9 -17 -1 -12 -10 -27 -19 -34 -10 -7 -13 -13 -6 -13 6 0 9 -7 6 -15 -4
-8 -9 -13 -13 -12 -9 5 -41 -30 -33 -37 3 -3 -2 -6 -12 -6 -12 0 -15 -6 -12
-26 4 -19 -2 -32 -21 -50 -15 -14 -23 -30 -20 -39 4 -8 2 -14 -2 -12 -15 4
-50 -44 -44 -59 3 -8 -10 -29 -30 -49 -22 -22 -35 -44 -34 -60 0 -16 -9 -33
-22 -41 -11 -8 -21 -24 -21 -35 0 -10 -7 -19 -15 -19 -9 0 -12 -6 -8 -16 3
-10 0 -22 -8 -28 -8 -6 -14 -18 -14 -26 0 -8 -6 -14 -13 -12 -8 1 -11 -6 -8
-23 3 -14 0 -25 -5 -25 -17 0 -41 -30 -36 -43 3 -8 -4 -19 -14 -26 -11 -6 -18
-15 -15 -20 3 -4 -6 -19 -20 -34 -14 -15 -23 -31 -20 -36 3 -5 -1 -12 -10 -15
-9 -4 -14 -13 -10 -21 3 -9 -1 -18 -10 -22 -8 -3 -13 -12 -10 -20 3 -7 -1 -16
-9 -19 -8 -4 -15 -14 -15 -23 -1 -20 -25 -53 -33 -44 -7 6 -11 -12 -8 -30 1
-4 -5 -10 -13 -13 -9 -3 -13 -15 -10 -30 3 -16 0 -23 -8 -22 -8 2 -13 -6 -12
-19 0 -13 -2 -21 -4 -18 -7 7 -52 -47 -52 -62 0 -7 -4 -13 -10 -13 -5 0 -7 -7
-4 -15 4 -8 -1 -17 -9 -21 -9 -3 -14 -11 -11 -18 3 -7 -2 -19 -10 -26 -9 -7
-14 -16 -11 -20 3 -4 -2 -13 -10 -20 -8 -7 -15 -19 -15 -28 0 -8 -9 -23 -21
-32 -11 -10 -21 -28 -22 -39 0 -11 -3 -18 -5 -16 -7 6 -36 -26 -38 -42 -2 -9
-12 -24 -23 -34 -12 -11 -21 -32 -21 -48 0 -16 -7 -31 -15 -35 -9 -3 -12 -12
-8 -22 4 -12 3 -15 -5 -10 -7 4 -12 2 -12 -6 0 -7 -11 -22 -25 -32 -14 -10
-25 -27 -25 -37 0 -11 -4 -19 -10 -19 -5 0 -9 -3 -9 -8 3 -12 -25 -72 -33 -72
-16 0 -8 -41 12 -62 11 -12 20 -16 20 -10 0 7 5 12 10 12 6 0 10 -6 10 -13 0
-11 36 -41 51 -42 10 0 68 -53 63 -58 -6 -5 87 -52 99 -49 4 1 7 -6 7 -15 0
-9 3 -14 6 -11 3 3 16 -5 29 -18 13 -13 30 -24 37 -24 8 0 20 -9 28 -20 8 -11
22 -20 31 -20 9 0 24 -11 34 -24 10 -13 26 -23 35 -21 10 2 23 -7 30 -20 7
-13 29 -32 49 -41 20 -9 46 -29 59 -45 13 -16 27 -27 32 -24 5 3 15 -2 24 -10
8 -8 19 -14 23 -13 4 2 22 -12 39 -29 17 -18 37 -33 43 -33 7 0 23 -11 37 -25
14 -14 30 -25 37 -25 7 0 20 -9 30 -20 9 -11 25 -20 34 -20 10 0 29 -15 42
-33 14 -18 33 -34 44 -35 11 0 24 -7 28 -14 4 -7 11 -9 15 -6 4 4 15 -4 26
-17 11 -14 26 -25 34 -25 8 0 25 -11 37 -24 12 -13 30 -22 40 -20 9 1 17 -2
17 -7 0 -13 50 -59 64 -59 6 0 26 -16 45 -35 18 -19 37 -32 42 -29 5 3 9 0 9
-6 0 -6 5 -8 10 -5 6 3 10 1 10 -5 0 -7 7 -10 15 -6 9 3 15 0 15 -9 0 -8 5
-15 11 -15 6 0 25 -15 43 -34 19 -20 39 -32 50 -30 11 1 28 -7 39 -19 11 -12
23 -21 27 -20 5 2 12 -6 15 -17 4 -12 13 -17 25 -15 12 2 21 -3 25 -16 4 -10
13 -19 21 -19 8 0 13 -6 12 -12 -2 -7 3 -12 10 -10 6 1 12 -3 12 -9 0 -19 30
-40 52 -37 14 2 31 -6 43 -19 11 -12 27 -24 35 -25 8 -2 29 -18 46 -36 18 -18
36 -31 40 -30 5 2 26 -14 47 -35 21 -20 45 -37 53 -37 8 0 14 -4 14 -10 0 -5
6 -7 13 -5 7 3 27 -10 45 -30 19 -19 40 -35 48 -35 8 0 14 -4 14 -10 0 -5 5
-10 11 -10 6 0 20 -11 31 -25 10 -13 22 -24 26 -24 21 3 32 -2 26 -13 -5 -7
-2 -9 9 -5 8 3 21 -1 27 -8 7 -8 16 -13 20 -10 4 3 31 -17 58 -44 35 -34 58
-49 74 -47 19 1 80 -45 82 -64 1 -2 6 -5 11 -5 22 -2 45 -18 45 -32 0 -8 3
-12 8 -10 9 6 33 -18 26 -27 -2 -3 1 -2 7 3 8 6 19 1 35 -16 12 -13 29 -26 37
-27 20 -3 47 -32 39 -41 -4 -5 1 -5 10 -2 10 3 24 -1 32 -9 9 -8 22 -14 30
-12 8 2 16 -1 18 -7 5 -16 73 -81 81 -77 4 2 7 -5 7 -14 0 -10 3 -14 6 -11 4
3 16 1 28 -5 11 -7 23 -13 26 -14 22 -5 39 -18 34 -25 -3 -5 2 -9 10 -9 8 0
22 -7 30 -16 9 -8 16 -12 16 -8 0 4 8 -2 18 -12 9 -10 23 -20 31 -22 8 -2 26
-16 41 -32 16 -17 34 -30 42 -30 7 0 20 -9 28 -20 8 -11 20 -20 27 -20 7 0 13
-7 13 -16 0 -8 5 -12 11 -9 6 4 22 -4 36 -16 15 -13 23 -18 19 -11 -11 19 1
14 24 -10 11 -12 18 -28 16 -35 -4 -9 6 -13 36 -13 32 0 48 7 78 34 21 19 36
37 32 40 -3 3 0 7 6 7 21 2 26 5 61 23 19 10 45 30 58 44 14 15 31 26 39 24 8
-2 17 4 20 12 3 9 10 13 16 10 5 -3 25 10 43 31 19 20 39 34 45 30 5 -3 13 1
16 9 3 9 12 16 20 16 8 0 14 7 14 15 0 9 6 12 15 9 8 -4 17 1 21 10 3 9 10 14
14 11 4 -3 11 2 14 11 3 9 13 14 20 11 8 -3 17 1 20 10 4 8 13 13 20 10 8 -3
17 1 20 9 3 8 13 14 22 14 9 0 32 16 50 36 19 19 38 33 43 29 5 -3 17 5 25 17
11 15 16 18 16 8 1 -10 10 -5 26 13 15 18 31 27 40 23 8 -3 12 -2 9 3 -3 5 4
12 15 16 11 3 20 13 20 20 0 8 8 12 19 10 11 -2 22 3 25 12 4 8 13 13 20 10 9
-3 21 5 31 19 9 14 22 23 29 22 8 -2 28 12 46 31 18 18 38 34 44 35 7 1 23 11
36 23 12 12 27 20 32 17 4 -3 11 2 14 10 3 9 10 14 14 11 5 -3 11 -1 15 5 4 6
9 9 13 7 4 -2 15 4 25 15 9 10 14 18 10 18 -4 0 3 7 15 16 12 8 27 12 32 9 6
-3 10 -2 10 4 0 6 11 13 25 17 14 3 25 10 25 15 0 5 9 9 20 9 11 0 20 5 20 11
0 5 5 7 10 4 6 -3 10 -1 10 4 0 14 32 45 51 49 7 2 16 7 19 11 3 4 11 7 19 6
7 0 31 17 52 37 21 21 51 41 66 44 16 4 33 14 40 23 6 9 15 13 19 9 4 -4 24
10 45 31 20 22 40 37 43 34 3 -3 12 2 21 10 8 9 22 14 30 11 10 -4 15 0 15 11
0 9 5 13 10 10 6 -3 10 1 10 10 0 9 4 14 9 11 13 -8 42 4 36 14 -3 5 4 11 15
15 11 3 20 10 20 15 0 5 7 7 15 4 8 -4 15 -1 15 5 0 6 9 11 20 11 11 0 20 7
20 16 0 8 4 13 9 9 5 -3 17 5 26 17 8 13 20 24 25 24 6 1 17 2 27 3 9 0 14 4
10 7 -9 9 18 34 37 34 8 0 23 11 34 25 11 13 22 22 25 19 3 -3 16 2 29 10 14
9 28 13 31 9 4 -3 7 -1 7 6 0 21 27 40 49 36 12 -2 19 0 16 5 -3 5 8 18 25 30
16 12 30 19 30 16 0 -3 12 6 27 20 15 14 33 22 40 20 7 -3 13 1 13 8 0 8 16
21 35 30 19 9 35 21 35 27 0 6 5 7 10 4 6 -3 10 0 10 8 0 9 9 13 24 12 16 -2
36 8 60 31 20 19 42 35 49 37 6 1 19 10 28 19 9 10 19 15 23 11 3 -3 6 -1 6 5
0 7 6 12 14 12 8 0 21 9 29 20 8 11 17 17 20 14 3 -4 14 1 23 10 9 10 23 15
30 12 7 -3 16 4 19 15 4 11 9 18 12 15 7 -7 33 19 33 33 0 5 9 8 20 6 11 -2
20 0 20 4 0 5 13 14 29 21 16 6 32 18 35 27 3 8 11 11 16 8 6 -4 9 -1 8 7 -2
7 7 14 20 16 13 2 26 10 29 18 3 8 9 11 14 8 5 -3 16 2 25 10 9 9 19 14 24 11
4 -3 23 12 42 33 19 22 41 36 51 34 9 -2 17 1 17 7 0 6 6 11 14 11 19 0 77 55
68 65 -4 4 4 5 18 3 17 -2 24 1 22 10 -1 8 5 12 16 10 10 -1 31 9 47 24 16 15
32 25 37 22 4 -3 11 2 14 10 3 9 10 13 15 10 5 -3 9 2 9 10 0 9 7 13 19 11 11
-2 22 3 25 11 3 8 11 14 19 14 22 0 87 66 87 89 0 12 -4 19 -10 16 -6 -4 -10
8 -10 28 0 19 -6 40 -14 47 -8 6 -12 19 -9 27 4 11 2 14 -5 9 -8 -5 -12 0 -12
13 0 11 -12 29 -26 40 -14 11 -23 25 -19 31 7 11 -17 40 -34 40 -6 0 -10 3 -9
8 4 14 -13 52 -23 52 -6 0 -7 5 -4 11 8 12 -24 51 -35 44 -5 -3 -7 6 -5 20 1
14 -2 25 -7 25 -17 0 -40 30 -34 45 3 9 0 15 -9 15 -8 0 -15 9 -15 20 0 11
-16 35 -36 54 -24 22 -35 40 -31 50 4 9 1 15 -5 13 -7 -1 -12 3 -13 10 0 7 -6
18 -13 25 -6 6 -12 18 -12 26 0 8 -13 27 -28 42 -28 26 -82 122 -82 145 0 5
-11 19 -25 29 -13 10 -22 23 -19 28 3 5 -3 17 -14 27 -12 9 -22 24 -24 31 -2
8 -13 25 -25 38 -13 12 -23 34 -23 48 0 13 -7 27 -15 30 -8 3 -17 14 -20 25
-4 10 -14 19 -22 19 -9 0 -14 3 -10 6 3 4 0 19 -8 34 -8 15 -11 30 -8 34 4 3
1 6 -6 6 -7 0 -9 5 -5 12 4 6 3 8 -3 5 -9 -5 -57 39 -58 53 0 3 -6 15 -13 26
-6 12 -9 24 -5 27 3 4 -1 9 -10 13 -9 3 -14 14 -12 25 2 12 -2 19 -11 19 -8 0
-14 7 -14 16 0 8 -4 12 -10 9 -9 -5 -14 17 -7 30 1 2 -8 12 -20 20 -13 9 -23
22 -23 29 0 7 -16 28 -35 47 -19 19 -35 42 -35 52 0 9 -4 17 -10 17 -5 0 -10
9 -10 20 0 11 -4 20 -10 20 -12 0 -14 27 -2 32 8 4 54 93 54 105 0 4 5 15 12
23 8 8 12 25 10 38 -3 15 1 22 12 22 10 0 13 6 9 19 -3 12 0 21 10 25 8 3 15
15 15 26 0 12 7 20 18 21 9 0 12 3 5 5 -9 4 -6 16 9 45 11 21 24 37 28 34 5
-3 6 4 3 15 -3 12 1 22 9 25 11 4 15 20 14 50 -1 29 3 46 12 50 7 3 11 9 8 14
-3 5 1 11 9 15 8 3 15 14 15 25 0 11 9 26 21 34 12 9 21 27 21 45 1 17 7 33
15 36 8 3 11 11 7 17 -3 6 0 15 7 20 20 12 21 176 1 184 -8 3 -11 12 -8 21 6
17 -27 68 -38 57 -3 -3 -6 -1 -6 6 0 6 -19 30 -42 51 -43 41 -54 49 -42 28 4
-7 -2 -4 -14 6 -25 22 -116 30 -135 12 -7 -6 -19 -11 -27 -11 -23 2 -70 -28
-70 -44 0 -8 -3 -12 -6 -8 -8 8 -34 -18 -34 -33 0 -6 -4 -9 -8 -6 -5 3 -16 -8
-26 -25 -9 -16 -14 -29 -9 -29 4 -1 -3 -7 -17 -15 -14 -8 -21 -14 -16 -15 5 0
3 -7 -4 -15 -7 -8 -10 -21 -7 -29 3 -8 -1 -17 -10 -20 -9 -4 -13 -9 -10 -13 4
-3 -3 -19 -14 -34 -11 -16 -17 -29 -12 -29 4 0 2 -4 -5 -9 -7 -4 -14 -19 -15
-32 -1 -13 -8 -34 -15 -46 -7 -13 -9 -23 -5 -23 4 0 2 -4 -6 -9 -8 -5 -16 -17
-17 -27 -2 -9 -8 -20 -14 -24 -6 -4 -10 -12 -8 -19 2 -7 -7 -17 -20 -22 -14
-5 -21 -5 -17 0 3 5 1 12 -4 16 -6 3 -7 13 -4 23 3 9 3 14 -2 10 -8 -8 -45 28
-45 44 0 5 -5 6 -11 2 -7 -4 -10 1 -7 12 2 11 -6 27 -17 37 -11 10 -14 16 -7
12 6 -3 12 -1 12 4 0 6 -5 11 -12 11 -6 0 -9 3 -5 6 8 8 -12 28 -36 37 -21 8
-17 34 4 29 11 -3 11 -1 3 8 -13 13 -7 50 7 50 5 0 9 11 9 25 0 14 5 25 10 25
6 0 10 9 10 20 0 11 5 20 10 20 6 0 10 9 10 19 0 11 4 21 9 23 5 2 11 10 13
18 2 8 9 21 16 29 7 7 11 20 8 27 -3 8 1 14 10 14 10 0 13 7 10 24 -2 14 3 32
13 43 9 10 15 26 13 35 -2 13 1 16 12 12 11 -4 13 0 9 14 -3 11 1 22 10 25 9
3 13 16 11 33 -2 19 4 33 20 45 14 11 24 29 24 45 0 15 7 31 16 36 9 5 14 13
11 18 -7 11 13 48 40 75 11 11 20 29 19 40 0 11 4 26 10 34 6 7 11 20 12 29 2
8 7 18 12 21 13 9 22 51 11 51 -6 0 -5 8 1 19 5 11 7 22 2 25 -4 2 -6 31 -4
63 5 95 3 114 -15 131 -7 7 -13 20 -13 28 0 8 -4 12 -10 9 -5 -3 -10 -1 -10 5
0 11 -65 80 -75 80 -3 0 -6 0 -7 1 -15 4 -71 2 -74 -3 -2 -3 -17 -3 -32 2 -16
4 -36 4 -45 -1 -10 -6 -18 -5 -22 1 -4 7 -13 3 -24 -9 -10 -11 -21 -18 -24
-15 -7 7 -127 -112 -128 -128 -1 -7 -1 -21 0 -30 2 -11 -5 -18 -15 -18 -10 0
-14 -3 -11 -7 4 -3 1 -13 -6 -21 -10 -13 -9 -15 3 -8 13 7 13 6 0 -6 -8 -7
-16 -20 -18 -28 -2 -8 -8 -16 -13 -18 -5 -2 -9 -13 -9 -23 0 -11 -4 -17 -10
-14 -6 4 -10 -5 -10 -19 0 -14 -4 -26 -10 -26 -5 0 -10 -10 -10 -23 0 -24 -36
-103 -60 -132 -7 -8 -9 -15 -6 -15 4 0 0 -10 -9 -22 -11 -17 -26 -23 -56 -25
-36 -1 -43 3 -68 37 -16 22 -31 36 -35 33 -3 -3 -6 2 -6 12 0 10 -10 27 -22
39 -26 24 -31 82 -9 95 7 5 11 13 7 19 -3 6 1 15 9 20 9 4 17 18 18 30 1 12 5
22 9 22 4 0 8 9 8 19 0 10 6 21 14 24 8 3 12 16 11 32 -2 16 2 28 11 32 8 3
12 9 9 13 -3 5 2 15 10 23 9 9 12 23 8 33 -4 11 -2 15 4 11 5 -4 15 4 21 18 8
17 8 25 0 27 -6 2 -4 10 6 20 9 9 16 22 16 29 0 6 11 22 25 34 15 15 23 31 20
44 -2 12 1 21 6 21 6 0 7 5 4 10 -3 6 -1 10 5 10 6 0 9 4 6 9 -3 5 1 14 9 21
8 7 15 21 15 31 0 11 5 19 10 19 6 0 10 9 10 20 0 11 4 20 9 20 13 0 18 99 6
104 -7 3 -7 5 0 5 16 1 9 121 -10 164 -8 21 -22 40 -30 44 -8 3 -15 10 -15 17
-1 13 -63 61 -75 57 -4 -1 -11 3 -15 10 -11 17 -128 19 -134 2 -3 -7 -17 -13
-31 -13 -19 0 -45 -20 -96 -71 -38 -38 -67 -74 -64 -80 4 -5 2 -9 -3 -9 -6 0
-15 -13 -21 -30 -5 -16 -14 -30 -20 -30 -5 0 -7 -10 -3 -22 3 -14 2 -19 -6
-14 -11 6 -17 -12 -13 -36 0 -5 -3 -8 -8 -8 -9 0 -37 -60 -33 -73 1 -4 -5 -10
-13 -13 -8 -3 -12 -10 -9 -15 3 -5 0 -9 -6 -9 -8 0 -8 -6 0 -20 10 -18 7 -24
-12 -21 -5 0 -8 -5 -8 -13 0 -8 -9 -13 -22 -12 -14 1 -22 7 -20 15 4 18 -28
52 -41 44 -6 -3 -7 -1 -3 6 4 6 1 14 -7 17 -9 3 -18 17 -21 30 -4 14 -10 23
-14 20 -4 -3 -14 -1 -22 5 -13 7 -13 9 -1 9 8 0 -1 15 -22 36 -20 20 -33 42
-30 48 12 18 10 106 -2 106 -7 0 -7 3 0 8 14 9 13 28 -2 44 -7 6 -13 18 -13
26 0 7 -26 38 -57 69 -32 31 -57 60 -55 65 1 5 -2 7 -8 3 -5 -3 -10 -1 -10 5
0 6 -4 8 -10 5 -15 -9 -94 74 -98 104 -2 14 -7 28 -13 29 -5 2 -7 8 -3 13 5 8
-10 13 -29 10 -5 -1 -6 3 -3 8 3 5 -1 12 -10 15 -8 3 -12 11 -8 17 3 6 3 14
-2 18 -13 9 -44 70 -44 85 0 7 -11 19 -25 26 -13 7 -22 16 -20 20 3 5 -2 10
-10 14 -8 3 -12 12 -9 19 3 8 -2 17 -11 21 -9 3 -13 10 -10 16 3 6 -1 17 -10
26 -9 9 -13 24 -10 32 3 9 3 13 -1 9 -4 -4 -14 2 -21 13 -8 11 -19 17 -25 14
-6 -4 -8 -2 -4 4 3 5 2 12 -4 14 -5 1 -10 18 -12 36 -1 17 -5 32 -9 32 -14 0
-59 54 -57 69 2 9 -3 15 -9 14 -8 -2 -13 7 -13 22 0 14 -8 29 -20 35 -11 6
-20 17 -20 25 0 19 -31 56 -41 49 -4 -2 -6 4 -4 15 2 11 -3 22 -11 25 -9 3
-12 10 -9 16 3 5 -1 10 -11 10 -11 0 -15 6 -11 20 3 13 -1 21 -14 25 -10 3
-16 12 -13 19 3 8 -5 23 -17 35 -13 12 -24 28 -25 37 -1 9 -12 23 -23 31 -12
8 -21 23 -21 34 0 10 -4 19 -10 19 -5 0 -10 8 -10 18 0 9 -9 23 -20 30 -11 7
-20 19 -20 28 0 8 -6 22 -12 29 -31 34 -36 43 -31 49 4 3 1 6 -6 6 -7 0 -9 5
-6 10 3 6 -1 10 -9 10 -9 0 -16 7 -16 16 0 8 -4 13 -9 10 -10 -7 -25 22 -22
42 1 6 -4 12 -11 12 -8 0 -14 10 -15 22 -1 11 -7 24 -14 28 -6 4 -9 13 -5 18
4 6 -3 16 -14 22 -11 6 -17 16 -14 22 4 7 3 8 -4 4 -7 -4 -12 -2 -12 3 0 14
-37 14 -45 1z m1605 -3400 c0 -5 -2 -10 -4 -10 -3 0 -8 5 -11 10 -3 6 -1 10 4
10 6 0 11 -4 11 -10z m-23 -35 c-2 -14 -6 -25 -10 -25 -4 0 -12 0 -19 0 -6 0
-3 6 8 14 10 8 16 18 11 22 -4 4 -7 2 -7 -5 0 -7 -5 -9 -11 -5 -8 4 -7 9 2 15
23 14 30 10 26 -16z"/>
</g>
</svg>
